<svg width="62" height="60" viewBox="0 0 62 60" xmlns="http://www.w3.org/2000/svg"><g fill="#000" fill-rule="nonzero" opacity=".6"><path d="M61.327 49.134l-12.75-12.789a2.28 2.28 0 0 0-1.626-.675c-.424 0-.83.117-1.184.332L34.005 24.198a.938.938 0 0 0-1.33 0 .945.945 0 0 0 0 1.334l11.713 11.754-2.62 2.629-13.05-13.088 2.621-2.629 1.746 1.751a.938.938 0 0 0 1.33 0 .945.945 0 0 0 0-1.333l-1.746-1.751 4.543-4.557.36.36c.446.448 1.04.695 1.672.695.631 0 1.225-.247 1.672-.695l1.675-1.68a2.36 2.36 0 0 0 .692-1.676 2.36 2.36 0 0 0-.692-1.677L29.74.745a2.345 2.345 0 0 0-1.673-.694c-.631 0-1.225.247-1.671.695l-1.675 1.68a2.36 2.36 0 0 0-.693 1.677c0 .633.246 1.229.693 1.677l.36.36-14.368 14.41-.36-.36a2.362 2.362 0 0 0-3.343 0l-1.675 1.68a2.36 2.36 0 0 0-.692 1.676c0 .634.246 1.23.692 1.677l12.85 12.889c.447.448 1.04.695 1.672.695.632 0 1.226-.247 1.672-.695l1.675-1.68a2.38 2.38 0 0 0 0-3.354l-.36-.36 4.544-4.557 13.098 13.137c-.214.355-.331.762-.331 1.188 0 .616.239 1.194.673 1.63l12.75 12.789a2.28 2.28 0 0 0 1.626.675c.614 0 1.19-.24 1.625-.675l4.497-4.51a2.293 2.293 0 0 0 .673-1.63c0-.617-.239-1.196-.673-1.631zM26.051 3.759l1.675-1.68a.48.48 0 0 1 .685 0l12.85 12.889a.484.484 0 0 1 0 .687l-1.675 1.68a.495.495 0 0 1-.685 0L26.051 4.446a.483.483 0 0 1 0-.687zm-4.175 31.34l-1.675 1.68a.495.495 0 0 1-.685 0l-12.85-12.89a.484.484 0 0 1 0-.686l1.674-1.68a.482.482 0 0 1 .685 0l12.85 12.888a.488.488 0 0 1 0 .688zm4.848-8.939l-5.208 5.224-9.472-9.5L26.41 7.474l9.472 9.5-5.208 5.223v.001l-3.95 3.962zm33.273 24.9L55.5 55.571a.415.415 0 0 1-.59 0L42.158 42.782a.418.418 0 0 1 0-.593l.273-.274 4.224-4.236a.415.415 0 0 1 .59 0l12.751 12.788a.418.418 0 0 1 0 .593z"/><path d="M35.702 51.591h-1.44v-4.968a2.01 2.01 0 0 0-2.004-2.01H16.053c-.519 0-.519 1.885 0 1.885h16.205c.068 0 .124.056.124.124v4.969H7.404v-4.969c0-.068.055-.124.124-.124h9.885c.519 0 .519-1.886 0-1.886H7.528a2.01 2.01 0 0 0-2.004 2.01v4.97h-1.44A4.094 4.094 0 0 0 0 55.686v2.684c0 .87.705 1.578 1.573 1.578h36.64c.867 0 1.572-.708 1.572-1.578v-2.684a4.094 4.094 0 0 0-4.083-4.096zm2.203 6.472H1.88v-2.376a2.21 2.21 0 0 1 2.203-2.21h31.62a2.21 2.21 0 0 1 2.202 2.21v2.376z"/></g></svg>