<svg width="60" height="61" viewBox="0 0 60 61" xmlns="http://www.w3.org/2000/svg"><g fill="#000" fill-rule="nonzero" opacity=".6"><path d="M42.993 0H7.068C3.212.005.088 3.136.082 7v35.917c.005 3.864 3.13 6.995 6.986 7h10.977v-2H7.068a5 5 0 0 1-4.99-5V26h6.409a1.075 1.075 0 0 0 .914-1.484 4.003 4.003 0 0 1 2.048-5.271 3.988 3.988 0 0 1 5.26 2.052 4.008 4.008 0 0 1 0 3.219A1.038 1.038 0 0 0 17.624 26h6.408v6a5.83 5.83 0 0 0-.998-.083c-3.307-.001-5.988 2.684-5.99 5.998a6 6 0 0 0 3.595 5.502l.799-1.832a4.003 4.003 0 0 1-2.069-5.263 3.991 3.991 0 0 1 3.665-2.405c.55 0 1.094.115 1.597.338a.997.997 0 0 0 1.397-.916V26h5.074a6.014 6.014 0 0 0 4.705 6.88l.4-1.959A4.011 4.011 0 0 1 33.013 27c0-.551.115-1.096.338-1.6a1 1 0 0 0-.914-1.4h-6.409v-5.085c.33.057.664.085.998.085 3.307 0 5.987-2.686 5.987-6s-2.68-6-5.987-6a5.83 5.83 0 0 0-.998.085V2h16.965a5 5 0 0 1 4.99 5v17h-6.41a.999.999 0 0 0-.913 1.4c.222.504.337 1.049.337 1.6h1.996c0-.335-.028-.67-.085-1h6.072a.999.999 0 0 0 .998-1V7c-.005-3.864-3.13-6.995-6.985-7zM27.026 9a3.996 3.996 0 0 1 3.992 4c0 2.21-1.788 4-3.992 4-.55 0-1.094-.115-1.597-.338a.997.997 0 0 0-1.397.916v6.339h-5.067c.05-.303.076-.61.078-.917v-.052-.031c0-3.314-2.681-6-5.988-6-3.307 0-5.987 2.686-5.987 6V23c.001.307.027.614.077.917H2.078V7a5 5 0 0 1 4.99-5h16.964v6.422a.999.999 0 0 0 1.397.916A3.936 3.936 0 0 1 27.026 9z"/><path d="M57.823 42.982l-8.39-5.789-3.222-8.627A.997.997 0 0 0 44.873 28l-6.487 2.875a1 1 0 0 0-.529 1.272c.108.28.209.492.316.712.107.22.205.426.326.751a4.027 4.027 0 0 1-2.334 5.173 3.99 3.99 0 0 1-5.137-2.345 4.007 4.007 0 0 1-.247-1.626 1 1 0 0 0-1.35-.988l-6.933 2.617a1 1 0 0 0-.582 1.286l2.488 6.663c-.33.06-.653.15-.968.268a6.017 6.017 0 0 0-3.527 7.734 5.997 5.997 0 0 0 8.642 3.097l1.784 4.776a.997.997 0 0 0 1.285.586l.001-.001 9.888-3.733a5.363 5.363 0 0 0 3.16 2.828l.63-1.9a3.367 3.367 0 0 1-1.907-1.634l3.009-1.135a6.965 6.965 0 0 0 6.57 4.641v-2a5.026 5.026 0 0 1-4.989-5 1 1 0 0 0-.292-.707l-3.475-3.482a1.485 1.485 0 0 1-.137-1.929 1.452 1.452 0 0 1 1.073-.586 1.43 1.43 0 0 1 1.146.429l6.967 6.982 1.411-1.414-2.061-2.066a6.99 6.99 0 0 0-.09-4.675l-1.87-5.005 6.031 4.161c.8.562 1.276 1.48 1.276 2.458V60h1.996V47.083a5.012 5.012 0 0 0-2.134-4.101zm-7.167 3.188c.275.734.375 1.523.291 2.303l-3.24-3.245a3.463 3.463 0 0 0-4.903-.062 3.48 3.48 0 0 0 0 4.976l3.156 3.163-14.102 5.323-1.902-5.093a.999.999 0 0 0-1.633-.364 3.986 3.986 0 0 1-5.643-.16 4.006 4.006 0 0 1 1.464-6.48c.318-.117.65-.192.987-.223.207-.026.417-.033.626-.021a.999.999 0 0 0 .987-1.35l-2.607-6.973 4.752-1.793a5.988 5.988 0 0 0 7.983 4.486 6.03 6.03 0 0 0 3.5-7.744 8.915 8.915 0 0 0-.254-.615l4.59-2.037 5.948 15.909z"/></g></svg>