<svg width="85" height="75" viewBox="0 0 85 75" xmlns="http://www.w3.org/2000/svg"><path d="M67.258 20.058l8.336 8.275c.457.453.457 1.19 0 1.643-.221.219-.515.34-.827.34-.313 0-.607-.121-.828-.34l-8.624-8.561c.8-.342 1.455-.797 1.943-1.357zm-3.5-.636v-.034c0-.31.12-.602.343-.821a1.175 1.175 0 0 1 1.407-.187c-.341.449-.94.804-1.75 1.042zm18.81 9.976a6.005 6.005 0 0 1-2.338 4.374l-3.428 2.633h-.003l-13.42 10.307a6.123 6.123 0 0 1-7.912-.41c-.046-.044-2.618-2.596-7.717-7.656-2.161-2.245-2.346-5.597-.51-7.955l7.354-9.434c2.243.598 4.406.917 6.34.917.576 0 1.122-.03 1.637-.085l9.658 9.585a3.59 3.59 0 0 0 2.538 1.042 3.59 3.59 0 0 0 2.538-1.042 3.55 3.55 0 0 0 0-5.04l-9.84-9.765a3.579 3.579 0 0 0-2.537-1.044c-.96 0-1.86.37-2.538 1.044a3.522 3.522 0 0 0-1.031 2.896c-.14.004-.28.007-.424.007-1.448 0-3.05-.202-4.727-.587l4.069-5.22a6.069 6.069 0 0 1 4.406-2.321 6.083 6.083 0 0 1 4.666 1.748l11.458 11.374a5.993 5.993 0 0 1 1.762 4.632zm-35.16 23.23a.161.161 0 0 1-.148.043 2.608 2.608 0 0 0-2.42.68l-4.012 3.982-4.344 2.265a2.23 2.23 0 0 0-.955.953l-2.103 4.038-3.303 1.582c-.384.183-.705.47-.931.827l-2.955 4.684-4.76.604.609-4.724 4.718-2.933a2.25 2.25 0 0 0 .834-.925l1.593-3.28 4.068-2.087a2.23 2.23 0 0 0 .96-.947l2.282-4.313 4.01-3.981a2.565 2.565 0 0 0 .686-2.403.157.157 0 0 1 .042-.148l5.503-5.463 6.13 6.084-5.503 5.463zm3.414-35.212a32.088 32.088 0 0 1-5.032-2.672l-.803-8.408a5.809 5.809 0 0 0-.165-.917h.053c2.952 0 6.543.836 10.112 2.355 1.962.836 3.778 1.818 5.353 2.886a8.457 8.457 0 0 0-1.977 1.835l-4.67 5.993a33.892 33.892 0 0 1-2.871-1.072zM37.98 9.92a1.446 1.446 0 0 1-.562.112 1.443 1.443 0 0 1-1.447-1.436 1.443 1.443 0 0 1 1.625-1.425c-.136.859-.005 1.784.384 2.749zm3.6 13.26l-19.533 19.39c-.5.496-1.165.77-1.872.77a2.64 2.64 0 0 1-1.871-.77l-15.112-15a2.607 2.607 0 0 1-.775-1.858c0-.702.276-1.362.775-1.858l8.69-8.618c.002-.003 0-.008.004-.011l10.84-10.76a7.098 7.098 0 0 1 5.688-2.032l11.052 1.04a3.445 3.445 0 0 1 3.112 3.09l.592 6.195a20 20 0 0 1-.582-.535 18.365 18.365 0 0 1-.455-.456 13.847 13.847 0 0 1-.592-.658 10.77 10.77 0 0 1-.493-.634l-.15-.216a3.822 3.822 0 0 0-.746-4.377 3.892 3.892 0 0 0-5.468 0 3.822 3.822 0 0 0 0 5.428 3.87 3.87 0 0 0 2.734 1.122 3.89 3.89 0 0 0 1.762-.421c.347.467.746.939 1.2 1.412.878.917 1.928 1.81 3.107 2.656l.14 1.455a6.998 6.998 0 0 1-2.047 5.647zm40.938-.114L71.06 11.694a8.517 8.517 0 0 0-8.184-2.176c-1.963-1.486-4.336-2.844-6.934-3.95-3.865-1.645-7.793-2.551-11.066-2.551-.453 0-.886.019-1.301.054a5.883 5.883 0 0 0-3.88-1.987L28.643.043a9.528 9.528 0 0 0-7.628 2.724L9.45 14.247c-.002.002-.001.007-.003.01l-7.965 7.9a5.008 5.008 0 0 0 0 7.11l15.11 15.002a5.051 5.051 0 0 0 3.583 1.473 5.052 5.052 0 0 0 3.583-1.473l19.533-19.39a9.376 9.376 0 0 0 2.774-7.147 35.742 35.742 0 0 0 3.804 1.89c.752.32 1.506.612 2.257.875l-6.8 8.724c-2.324 2.983-2.332 7.103-.174 10.084l-5.583 5.542a2.563 2.563 0 0 0-.686 2.402c.009.035-1.348 1.417-4.071 4.147-.16.16-.296.342-.402.542l-2.268 4.289-4.072 2.089c-.43.22-.783.582-.994 1.016l-1.597 3.286-4.847 3.014a1.971 1.971 0 0 0-.92 1.427l-.704 5.46a1.988 1.988 0 0 0 2.233 2.217l5.5-.698a1.985 1.985 0 0 0 1.439-.913l3.037-4.812 3.31-1.585c.437-.21.8-.56 1.023-.988l2.105-4.041 4.32-2.251c.203-.105.387-.24.547-.4l4.029-3.998c1.014.162 1.94-.1 2.569-.722l5.582-5.542a8.549 8.549 0 0 0 4.966 1.583c1.826 0 3.658-.58 5.193-1.758l12.938-9.937h.002l3.909-3.003a8.396 8.396 0 0 0 3.273-6.12 8.385 8.385 0 0 0-2.465-6.484z" fill="#5E5E5E" fill-rule="evenodd"/></svg>