<svg width="68" height="63" viewBox="0 0 68 63" xmlns="http://www.w3.org/2000/svg" xmlns:xlink="http://www.w3.org/1999/xlink"><defs><path id="a" d="M0 .65H67.31V63H0z"/></defs><g fill="none" fill-rule="evenodd"><g><mask id="b" fill="#fff"><use xlink:href="#a"/></mask><path d="M52.551 60.569c-6.788 0-12.31-5.488-12.31-12.232 0-6.744 5.522-12.23 12.31-12.23 6.79 0 12.311 5.486 12.311 12.23 0 6.744-5.522 12.232-12.31 12.232zM4.964 55.262a2.145 2.145 0 0 1-2.15-2.136V20.364h57.745v15.675a14.727 14.727 0 0 0-8.008-2.364c-8.136 0-14.756 6.577-14.756 14.662 0 2.504.638 4.861 1.756 6.925H4.964zm-2.15-45.238c0-1.178.965-2.136 2.15-2.136h10.854v4.404h2.545V7.888H45.01v4.404h2.545V7.888H58.41c1.185 0 2.15.958 2.15 2.136v7.543H2.814v-7.543zm60.558 28.378V10.024c0-2.712-2.233-4.932-4.963-4.932H47.555V.65H45.01v4.442H18.363V.65h-2.545v4.442H4.964C2.234 5.092 0 7.312 0 10.024V53.126c0 2.712 2.233 4.932 4.964 4.932h36.571C44.24 61.082 48.17 63 52.551 63c8.137 0 14.758-6.578 14.758-14.663 0-3.835-1.501-7.32-3.937-9.935z" fill="#5E5E5E" mask="url(#b)"/></g><path fill="#5E5E5E" d="M15.72 34H18V24h-.244L13 25.482v1.611l2.72-.734zM32.99 29.663c.617-.74 1.053-1.39 1.307-1.945.255-.556.382-1.103.382-1.64 0-.978-.283-1.736-.848-2.273-.566-.537-1.36-.805-2.383-.805-.667 0-1.265.156-1.791.466-.528.31-.936.74-1.224 1.285A3.824 3.824 0 0 0 28 26.563h1.977c0-.547.127-.987.384-1.323.257-.335.608-.503 1.053-.503.414 0 .732.137.955.414.223.275.334.654.334 1.135 0 .353-.106.727-.317 1.12-.212.39-.538.85-.98 1.377l-3.209 3.741V34H35v-1.736h-4.267l2.256-2.601zM16.587 47.236h-2.422l2.279-3.304.143-.226v3.53zM18.759 41h-2.195L12 47.587l.097 1.25h4.49V51h2.172v-2.164H20v-1.6h-1.24V41zM31.844 44.719c-.549 0-1.067.137-1.556.41l.256-2.333h4.115V41h-5.798l-.598 5.515 1.635.425.2-.194c.302-.267.698-.402 1.185-.402.531 0 .94.163 1.23.492.289.328.434.8.434 1.416 0 .64-.127 1.137-.378 1.486-.25.35-.608.526-1.073.526-.417 0-.754-.125-1.012-.376-.258-.252-.408-.603-.45-1.054H28c.02.615.184 1.163.494 1.646.31.481.733.856 1.269 1.122a3.862 3.862 0 0 0 1.74.398c.716 0 1.337-.152 1.863-.458a3.07 3.07 0 0 0 1.211-1.29c.282-.554.423-1.18.423-1.882 0-1.152-.28-2.048-.839-2.69-.558-.64-1.331-.961-2.317-.961M46.475 33.287c-.415 0-.764-.127-1.05-.382a1.266 1.266 0 0 1-.424-.985H43c0 .926.319 1.67.959 2.235.639.564 1.463.845 2.467.845 1.076 0 1.94-.286 2.594-.86.653-.573.98-1.335.98-2.287 0-.588-.14-1.098-.419-1.53-.279-.43-.703-.754-1.271-.97.457-.22.826-.536 1.108-.948.282-.412.422-.862.422-1.353 0-.95-.302-1.697-.906-2.238-.605-.543-1.44-.814-2.508-.814-.613 0-1.175.125-1.685.375a2.89 2.89 0 0 0-1.19 1.04 2.729 2.729 0 0 0-.427 1.504h2.001c0-.357.13-.647.388-.87.258-.224.579-.335.962-.335.425 0 .758.12 1.001.36.242.24.363.576.363 1.008 0 .445-.122.804-.366 1.073-.245.27-.621.405-1.128.405h-1.067v1.662h1.06c1.107 0 1.661.533 1.661 1.602 0 .441-.136.796-.405 1.063-.27.266-.643.4-1.119.4M57.023 43.546L51.457 49.5l-2.48-2.652a1.665 1.665 0 0 0-2.467 0 1.958 1.958 0 0 0 0 2.637l3.714 3.969c.34.364.787.547 1.233.547.445 0 .892-.183 1.233-.547l6.799-7.27a1.956 1.956 0 0 0 0-2.637 1.664 1.664 0 0 0-2.466 0"/></g></svg>